<!-- Generated by IcoMoon.io -->
<svg version="1.1" xmlns="http://www.w3.org/2000/svg" width="768" height="768" viewBox="0 0 768 768">
<title></title>
<g id="icomoon-ignore">
</g>
<path fill="#d4145a" d="M384 96c177 0 319.5 142.5 319.5 319.5 0 118.5-63 222-159 277.5l-33-55.5c76.5-45 129-127.5 129-222 0-141-115.5-255-256.5-255s-256.5 114-256.5 255c0 94.5 51 177 127.5 222l-31.5 55.5c-96-55.5-159-159-159-277.5 0-177 142.5-319.5 319.5-319.5zM576 415.5c0 70.5-39 133.5-96 166.5l-31.5-55.5c37.5-22.5 63-63 63-111 0-70.5-57-127.5-127.5-127.5s-127.5 57-127.5 127.5c0 48 25.5 88.5 63 111l-31.5 55.5c-57-33-96-96-96-166.5 0-106.5 85.5-192 192-192s192 85.5 192 192zM384 352.5c34.5 0 64.5 28.5 64.5 63s-30 64.5-64.5 64.5-64.5-30-64.5-64.5 30-63 64.5-63z"></path>
</svg>
