<!-- Generated by IcoMoon.io -->
<svg version="1.1" xmlns="http://www.w3.org/2000/svg" width="448" height="448" viewBox="0 0 448 448">
<title></title>
<g id="icomoon-ignore">
</g>
<path fill="#b3b3b3" d="M448 211.5q0 14.5-7.375 26.375t-19.875 18.125q3 11.5 3 24 0 38.75-26.625 71.75t-72.625 52.125-100 19.125-99.875-19.125-72.5-52.125-26.625-71.75q0-11.75 2.75-23.5-12.75-6.25-20.5-18.375t-7.75-26.625q0-20.5 14.5-35.125t35.25-14.625q21.25 0 36.25 15.75 54.5-38 128.75-40.5l29-130.25q0.75-3.25 3.75-5.25t6.5-1.25l92.25 20.25q4.5-9.25 13.5-14.875t19.75-5.625q15.5 0 26.5 10.875t11 26.375-11 26.5-26.5 11-26.375-10.875-10.875-26.375l-83.5-18.5-26 118q75 2.25 129.75 40 14.5-15.25 35.75-15.25 20.75 0 35.25 14.625t14.5 35.125zM104.5 261.25q0 15.5 10.875 26.5t26.375 11 26.5-11 11-26.5-11-26.375-26.5-10.875q-15.25 0-26.25 11t-11 26.25zM307 350q2.75-2.75 2.75-6.5t-2.75-6.5q-2.5-2.5-6.25-2.5t-6.5 2.5q-10.25 10.5-30.25 15.5t-40 5-40-5-30.25-15.5q-2.75-2.5-6.5-2.5t-6.25 2.5q-2.75 2.5-2.75 6.375t2.75 6.625q10.75 10.75 29.625 17t30.625 7.375 22.75 1.125 22.75-1.125 30.625-7.375 29.625-17zM306.25 298.75q15.5 0 26.375-11t10.875-26.5q0-15.25-11-26.25t-26.25-11q-15.5 0-26.5 10.875t-11 26.375 11 26.5 26.5 11z"></path>
</svg>
