<!-- Generated by IcoMoon.io -->
<svg version="1.1" xmlns="http://www.w3.org/2000/svg" width="448" height="448" viewBox="0 0 448 448">
<title></title>
<g id="icomoon-ignore">
</g>
<path fill="#b3b3b3" d="M320 224q0-9.25-7.5-13.5l-128-80q-7.75-5-16.25-0.5-8.25 4.5-8.25 14v160q0 9.5 8.25 14 4 2 7.75 2 5 0 8.5-2.5l128-80q7.5-4.25 7.5-13.5zM448 224q0 24-0.25 37.5t-2.125 34.125-5.625 36.875q-4 18.25-17.25 30.75t-31 14.5q-55.5 6.25-167.75 6.25t-167.75-6.25q-17.75-2-31.125-14.5t-17.375-30.75q-3.5-16.25-5.375-36.875t-2.125-34.125-0.25-37.5 0.25-37.5 2.125-34.125 5.625-36.875q4-18.25 17.25-30.75t31-14.5q55.5-6.25 167.75-6.25t167.75 6.25q17.75 2 31.125 14.5t17.375 30.75q3.5 16.25 5.375 36.875t2.125 34.125 0.25 37.5z"></path>
</svg>
